<?xml version="1.0" standalone="no"?><!DOCTYPE svg PUBLIC "-//W3C//DTD SVG 1.1//EN" "http://www.w3.org/Graphics/SVG/1.1/DTD/svg11.dtd"><svg t="1591932402689" class="icon" viewBox="0 0 1026 1024" version="1.1" xmlns="http://www.w3.org/2000/svg" p-id="5707" xmlns:xlink="http://www.w3.org/1999/xlink" width="200.390625" height="200"><defs><style type="text/css"></style></defs><path d="M54.784 334.336c8.704-7.168 13.824-18.432 13.824-30.208v-188.416l229.888 229.888c12.8 13.312 33.792 13.312 47.104 0 12.8-12.8 12.8-34.304 0-47.104l-229.888-229.888h192c9.728 0 18.432-4.096 24.064-10.24 10.752-10.752 15.36-29.184 2.56-44.544-7.168-8.704-18.432-13.824-30.208-13.824h-235.52c-37.888 0-68.608 30.72-68.608 68.608v239.104c0 9.728 4.096 18.432 10.24 24.064 10.752 10.752 29.184 15.36 44.544 2.56zM298.496 678.4l-229.888 229.888v-192c0-9.728-4.096-18.432-10.24-24.064-10.752-10.752-29.184-15.36-44.544-2.56-8.704 7.168-13.824 18.432-13.824 30.208v235.52c0 37.888 30.72 68.608 68.608 68.608h239.104c9.728 0 18.432-4.096 24.064-10.24 10.752-10.752 15.36-29.184 2.56-44.544-7.168-8.704-18.432-13.824-30.208-13.824h-188.416l229.888-229.888c13.312-12.8 13.312-33.792 0-47.104-12.8-12.8-34.304-12.8-47.104 0zM971.264 689.664c-8.704 7.168-13.824 18.432-13.824 30.208v188.416l-229.888-229.888c-12.8-13.312-33.792-13.312-47.104 0-12.8 12.8-12.8 34.304 0 47.104l229.888 229.888h-192c-9.728 0-18.432 4.096-24.064 10.24-10.752 10.752-15.36 29.184-2.56 44.544 7.168 8.704 18.432 13.824 30.208 13.824h235.52c37.888 0 68.608-30.72 68.608-68.608v-239.104c0-9.728-4.096-18.432-10.24-24.064-10.752-10.752-29.184-15.36-44.544-2.56zM957.44 0h-239.104c-9.728 0-18.432 4.096-24.064 10.24-10.752 10.752-15.36 29.184-2.56 44.544 7.168 8.704 18.432 13.824 30.208 13.824h188.416l-229.888 229.888c-13.312 12.8-13.312 33.792 0 47.104 12.8 12.8 34.304 12.8 47.104 0l229.888-229.888v192c0 9.728 4.096 18.432 10.24 24.064 10.752 10.752 29.184 15.36 44.544 2.56 8.704-7.168 13.824-18.432 13.824-30.208v-235.52c0-37.888-30.72-68.608-68.608-68.608z" p-id="5708" fill="#5c5edc"></path></svg>