<?xml version="1.0" standalone="no"?><!DOCTYPE svg PUBLIC "-//W3C//DTD SVG 1.1//EN" "http://www.w3.org/Graphics/SVG/1.1/DTD/svg11.dtd"><svg t="1591933020293" class="icon" viewBox="0 0 1024 1024" version="1.1" xmlns="http://www.w3.org/2000/svg" p-id="7985" xmlns:xlink="http://www.w3.org/1999/xlink" width="200" height="200"><defs><style type="text/css"></style></defs><path d="M201.649898 760.937557a32.368024 32.368024 0 1 1-32.368024-32.368023 32.440274 32.440274 0 0 1 32.368024 32.368023zM754.579553 137.275101a22.975517 22.975517 0 1 1-22.975517-22.975517 22.975517 22.975517 0 0 1 22.975517 22.975517zM433.500318 55.488041a37.714528 37.714528 0 1 1-37.714528-37.642278A37.714528 37.714528 0 0 1 433.500318 55.488041zM594.112185 342.031751a14.450011 14.450011 0 1 1-14.45001-14.450011 14.450011 14.450011 0 0 1 14.45001 14.450011zM490.361109 899.440909a18.062513 18.062513 0 1 1-17.990263-18.062513 17.990263 17.990263 0 0 1 17.990263 18.062513zM893.299654 673.514993a28.177521 28.177521 0 1 1-28.17752-28.17752 28.249771 28.249771 0 0 1 28.17752 28.17752z" fill="#666666" p-id="7986"></path><path d="M338.722698 873.40199l-34.029775-34.02255 301.318846-301.318846 34.029775 34.029775z" fill="#666666" p-id="7987"></path><path d="M937.516687 221.590912l19.001764 18.929514a60.545544 60.545544 0 0 1 0 85.616313L677.560996 605.094193 573.01517 500.476117l278.885204-278.885205a60.473294 60.473294 0 0 1 85.616313 0z" fill="#666666" p-id="7988"></path><path d="M677.560996 630.092711L548.016651 500.476117l291.384464-291.456714a78.319057 78.319057 0 0 1 110.614831 0l19.001764 19.001764a78.319057 78.319057 0 0 1 0 110.614831z m-79.475058-129.616594l79.475058 79.475058 266.458195-266.385945a42.844281 42.844281 0 0 0 0-60.545545L924.800677 234.090171a42.772031 42.772031 0 0 0-60.545544 0z" fill="#666666" p-id="7989"></path><path d="M529.433938 481.857278l24.984068-24.984068 166.753122 166.753122-24.984068 24.984068z" fill="#666666" p-id="7990"></path><path d="M297.597968 822.566852l58.016792 58.089043-109.38658 95.65907-44.578282-44.578283 95.94807-109.16983z" fill="#666666" p-id="7991"></path><path d="M626.696959 609.356946l-24.492768-25.504268 12.499259-12.065759-8.959006-8.959007-13.72751 13.22176-24.492768-25.504269 38.726028-37.281027 59.028293 59.028293-38.581528 37.064277z" fill="#666666" p-id="7992"></path><path d="M245.43343 1000.518733l-67.9873-67.9873 119.357087-135.757849 12.71601 12.716009 98.765822-98.765822 24.998518 24.998518-123.76434 123.836591-11.126508-11.126509-72.539054 82.509561 21.169266 21.169265 82.726311-72.322303-11.198759-11.271008 123.836591-123.836591 24.998518 24.998519-98.838072 98.838072 13.005009 13.00501-136.119099 118.995837z" fill="#666666" p-id="7993"></path><path d="M378.084527 250.274183a193.774642 193.774642 0 0 0-199.265646-46.384534l118.562337 118.562337-25.648769 95.80357-95.80357 25.648769L57.366542 325.125238a193.774642 193.774642 0 0 0 255.042687 242.398928l399.398292 397.736541a76.874056 76.874056 0 0 0 108.37508-108.375079l-399.398293-397.375291a194.063642 194.063642 0 0 0-42.699781-209.236154z" fill="#666666" p-id="7994"></path><path d="M765.850561 1005.648487a94.575319 94.575319 0 0 1-66.903549-27.671771l-391.306287-390.150285a211.475905 211.475905 0 0 1-267.325195-268.481197l9.103506-27.02152 131.495097 131.495096 76.079305-20.374515 20.374515-76.079305-131.495096-131.495097L173.400127 187.127637a211.475905 211.475905 0 0 1 268.481197 267.325196l391.378536 390.150286a94.575319 94.575319 0 0 1-67.409299 161.045368zM316.671982 547.005151l407.562548 405.973047a60.762295 60.762295 0 0 0 83.810062 0 59.245043 59.245043 0 0 0 0-83.737811L400.482043 463.267339l4.262753-10.837508a176.145629 176.145629 0 0 0-191.31814-238.930925L317.105482 317.177732l-30.923022 115.600085-115.600085 30.995273L66.903549 359.949764A176.073379 176.073379 0 0 0 305.906724 551.267904z" fill="#666666" p-id="7995"></path></svg>