<?xml version="1.0" standalone="no"?><!DOCTYPE svg PUBLIC "-//W3C//DTD SVG 1.1//EN" "http://www.w3.org/Graphics/SVG/1.1/DTD/svg11.dtd"><svg t="1591931350709" class="icon" viewBox="0 0 1024 1024" version="1.1" xmlns="http://www.w3.org/2000/svg" p-id="735" xmlns:xlink="http://www.w3.org/1999/xlink" width="200" height="200"><defs><style type="text/css"></style></defs><path d="M512 930.3C281.3 930.3 93.7 742.6 93.7 512 93.7 281.4 281.3 93.7 512 93.7S930.3 281.4 930.3 512c0 230.6-187.6 418.3-418.3 418.3z m0-773.2c-195.7 0-354.9 159.2-354.9 354.9S316.3 866.9 512 866.9 866.9 707.7 866.9 512 707.7 157.1 512 157.1z" fill="#666666" p-id="736"></path><path d="M512 781.5c-148.6 0-269.5-120.9-269.5-269.5 0-74 29.4-143 82.8-194.3 12.6-12.1 32.6-11.7 44.8 0.9 12.1 12.6 11.7 32.7-0.9 44.8-40.8 39.2-63.3 92-63.3 148.6 0 113.7 92.5 206.1 206.1 206.1 33.4 0 65.2-7.7 94.6-23 15.6-8 34.7-1.9 42.7 13.6s2 34.6-13.6 42.7c-37.9 19.7-80.7 30.1-123.7 30.1zM723.2 652.9c-4.9 0-9.9-1.1-14.5-3.6-15.5-8-21.6-27.2-13.5-42.7 15.2-29.4 23-61.2 23-94.7 0-113.6-92.5-206.1-206.1-206.1-9.2 0-18.3 0.6-27.2 1.8-17.5 2.2-33.2-10-35.5-27.3-2.3-17.4 10-33.2 27.3-35.5 11.7-1.5 23.6-2.3 35.3-2.3 148.6 0 269.5 120.9 269.5 269.5 0 43-10.4 85.9-30.1 123.8-5.6 10.9-16.7 17.1-28.2 17.1z" fill="#666666" p-id="737"></path><path d="M676.3 780.7c-57.5 0-104.3-46.8-104.3-104.4S618.8 572 676.3 572s104.4 46.8 104.4 104.4-46.9 104.3-104.4 104.3z m0-145.4c-22.6 0-41 18.4-41 41s18.4 41 41 41 41-18.4 41-41-18.4-41-41-41zM403.1 398.3c-31 0-60.2-13.7-80.1-37.5-11.2-13.4-9.4-33.4 4-44.6 13.4-11.2 33.4-9.4 44.6 4 7.8 9.4 19.3 14.8 31.5 14.8 22.6 0 41-18.4 41-41 0-3.9-0.5-7.6-1.5-11.2-4.8-16.8 5-34.4 21.8-39.1 16.8-4.8 34.3 5 39.1 21.8 2.6 9.2 3.9 18.8 3.9 28.5 0 57.5-46.8 104.3-104.3 104.3z" fill="#666666" p-id="738"></path><path d="M347.3 372.2c-9.1 0-18.1-3.9-24.3-11.4-15.6-18.7-24.2-42.5-24.2-66.9 0-57.5 46.8-104.4 104.4-104.4 46.5 0 87.8 31.2 100.4 75.9 4.8 16.8-5 34.4-21.9 39.1-16.8 4.7-34.3-5-39.1-21.9-4.9-17.5-21.2-29.8-39.4-29.8-22.6 0-41 18.4-41 41 0 12.3 5.2 21 9.5 26.2 11.2 13.4 9.4 33.4-4 44.6-6 5.2-13.2 7.6-20.4 7.6z" fill="#666666" p-id="739"></path><path d="M512 930.3c-17.5 0-31.7-14.2-31.7-31.7V127.2c0-17.5 14.2-31.7 31.7-31.7s31.7 14.2 31.7 31.7v771.4c0 17.5-14.2 31.7-31.7 31.7z" fill="#666666" p-id="740"></path><path d="M897.7 544.6H126.3c-17.5 0-31.7-14.2-31.7-31.7s14.2-31.7 31.7-31.7h771.4c17.5 0 31.7 14.2 31.7 31.7s-14.2 31.7-31.7 31.7z" fill="#666666" p-id="741"></path></svg>